<?xml version="1.0" standalone="no"?>
<!DOCTYPE svg PUBLIC "-//W3C//DTD SVG 20010904//EN"
 "http://www.w3.org/TR/2001/REC-SVG-20010904/DTD/svg10.dtd">
<svg version="1.0" xmlns="http://www.w3.org/2000/svg"
 width="364.000000pt" height="161.000000pt" viewBox="0 0 364.000000 161.000000"
 preserveAspectRatio="xMidYMid meet">
<metadata>
Created by potrace 1.11, written by Peter Selinger 2001-2013
</metadata>
<g transform="translate(0.000000,161.000000) scale(0.100000,-0.100000)"
fill="#000000" stroke="none">
<path d="M1450 1586 c0 -8 -9 -24 -19 -37 l-19 -24 -19 24 -19 24 -13 -31
c-16 -37 -123 -121 -130 -101 -2 7 -15 -9 -27 -36 -22 -46 -24 -47 -21 -17 l4
32 -24 -22 c-39 -37 -82 -137 -92 -213 -24 -194 59 -354 225 -436 58 -29 80
-34 161 -37 93 -4 96 -5 204 -64 61 -33 113 -58 115 -55 3 3 -8 70 -25 149
-36 169 -37 184 -10 141 24 -38 27 -39 46 -15 63 79 93 206 74 309 -13 72 -68
187 -105 222 l-23 21 4 -32 c3 -30 1 -29 -21 17 -12 27 -25 43 -27 36 -7 -20
-114 64 -130 101 l-13 31 -19 -24 -19 -24 -19 24 c-10 13 -19 29 -19 37 0 8
-4 14 -10 14 -5 0 -10 -6 -10 -14z m-70 -375 c59 -27 94 -26 168 4 34 14 74
25 89 25 42 0 98 -31 99 -55 2 -44 5 -53 30 -81 48 -54 53 -98 18 -152 -14
-21 -16 -21 -39 -6 -23 15 -27 15 -50 0 -14 -9 -25 -23 -25 -31 0 -13 22 -123
46 -224 5 -22 1 -21 -78 22 -79 43 -87 45 -163 45 -145 -1 -262 69 -324 194
-39 78 -39 108 -1 147 22 21 32 42 34 68 6 72 92 91 196 44z"/>
<path d="M1222 1168 c-7 -7 -12 -39 -12 -74 0 -82 15 -94 117 -94 79 0 103 13
103 56 0 21 5 24 35 24 30 0 35 -3 35 -24 0 -40 35 -56 117 -56 92 0 103 10
103 94 0 35 -5 67 -12 74 -16 16 -180 16 -196 0 -7 -7 -12 -25 -12 -40 0 -25
-3 -28 -35 -28 -32 0 -35 3 -35 28 0 45 -16 52 -110 52 -54 0 -91 -5 -98 -12z
m186 -72 c4 -71 -2 -76 -81 -76 -84 0 -97 9 -97 74 0 29 3 56 7 60 4 4 43 5
88 4 l80 -3 3 -59z m290 0 c2 -41 -1 -62 -10 -67 -20 -13 -142 -11 -156 3 -13
13 -17 110 -5 122 4 4 43 5 88 4 l80 -3 3 -59z"/>
<path d="M2215 1313 c-150 -54 -245 -158 -276 -305 -22 -103 9 -245 69 -317
l28 -34 22 34 c12 19 22 31 22 28 0 -3 -14 -70 -30 -149 -17 -79 -29 -149 -28
-156 2 -8 47 12 123 52 99 54 126 64 152 59 48 -9 159 13 216 41 154 79 249
262 219 424 -25 139 -106 245 -229 303 -86 40 -208 48 -288 20z m-6 -256 c60
-32 164 -57 231 -56 l45 1 -40 9 c-76 16 -156 42 -162 52 -4 6 0 8 9 4 38 -14
250 -57 315 -63 l73 -7 6 -36 c9 -48 -12 -145 -44 -204 -33 -62 -100 -122
-170 -154 -45 -21 -72 -26 -143 -28 -80 -1 -93 -4 -159 -39 -40 -20 -74 -35
-77 -32 -3 2 3 42 13 88 24 114 24 157 -1 174 -17 11 -25 11 -49 -2 -24 -12
-31 -12 -38 -2 -20 31 -39 121 -36 175 l3 57 65 32 c36 17 72 39 79 48 8 9 17
15 20 14 3 -2 30 -16 60 -31z"/>
<path d="M2086 958 c-22 -31 -21 -110 2 -138 16 -20 26 -22 102 -21 92 1 110
10 110 52 0 26 4 29 30 29 22 0 30 -5 30 -18 0 -10 7 -28 16 -40 14 -20 24
-22 103 -22 54 0 91 4 99 12 7 7 12 40 12 80 0 83 -7 88 -119 88 -71 0 -82 -2
-95 -22 -9 -12 -16 -30 -16 -40 0 -13 -8 -18 -30 -18 -26 0 -30 4 -30 28 0 45
-16 52 -111 52 -79 0 -89 -2 -103 -22z m180 -9 c19 -15 18 -103 0 -118 -8 -7
-40 -11 -73 -11 -92 3 -93 4 -93 64 0 28 5 57 11 63 14 14 138 16 155 2z m292
-2 c15 -12 16 -99 0 -115 -12 -12 -106 -16 -145 -6 -20 6 -23 13 -23 60 0 40
4 56 18 64 21 12 132 11 150 -3z"/>
<path d="M978 210 c-3 -130 -3 -130 20 -130 19 0 21 3 12 19 -9 18 -15 171 -6
171 2 0 45 -43 96 -95 52 -52 95 -93 97 -92 1 2 5 57 9 123 3 65 8 122 11 127
2 4 -4 7 -14 7 -16 0 -18 -9 -15 -95 3 -57 0 -95 -6 -95 -5 0 -49 43 -98 95
-48 52 -91 95 -95 95 -5 0 -9 -59 -11 -130z"/>
<path d="M1364 299 c-51 -15 -79 -53 -79 -110 0 -68 33 -101 107 -106 67 -5
111 19 128 73 15 46 0 105 -33 126 -30 20 -86 28 -123 17z m100 -40 c52 -61
23 -169 -45 -169 -62 0 -99 45 -99 120 0 53 27 80 79 80 32 0 44 -6 65 -31z"/>
<path d="M2480 228 c-7 -40 -15 -90 -20 -110 -7 -33 -6 -38 11 -38 12 0 16 5
13 15 -8 19 5 125 14 125 4 0 23 -32 42 -71 l34 -70 40 78 40 78 7 -35 c5 -19
9 -54 11 -77 3 -36 6 -43 24 -43 23 0 24 -9 -14 185 l-8 40 -42 -82 c-23 -46
-44 -83 -47 -83 -3 0 -23 36 -45 80 -22 44 -42 80 -44 80 -2 0 -10 -33 -16
-72z"/>
</g>
</svg>
